<svg width="263" height="121" viewBox="0 0 263 121" fill="none" xmlns="http://www.w3.org/2000/svg">
<g filter="url(#filter0_d_206_25)">
<mask id="path-1-outside-1_206_25" maskUnits="userSpaceOnUse" x="3" y="26" width="163" height="70" fill="black">
<rect fill="white" x="3" y="26" width="163" height="70"/>
<path d="M36.424 94.384C31.88 94.384 27.656 93.648 23.752 92.176C19.848 90.64 16.424 88.432 13.48 85.552C10.536 82.672 8.264 79.216 6.664 75.184C5.064 71.088 4.264 66.48 4.264 61.36C4.264 56.24 5.096 51.632 6.76 47.536C8.424 43.44 10.728 39.92 13.672 36.976C16.616 33.968 20.008 31.664 23.848 30.064C27.688 28.464 31.784 27.664 36.136 27.664C39.336 27.664 42.088 27.888 44.392 28.336C46.76 28.72 48.616 29.104 49.96 29.488L51.784 47.056H45.16L41.032 36.4C40.584 36.336 40.072 36.272 39.496 36.208C38.984 36.08 38.056 36.016 36.712 36.016C32.36 36.016 28.488 37.104 25.096 39.28C21.768 41.456 19.144 44.4 17.224 48.112C15.368 51.76 14.376 55.92 14.248 60.592C14.312 65.392 15.24 69.712 17.032 73.552C18.824 77.328 21.384 80.368 24.712 82.672C28.04 84.912 32.008 86.032 36.616 86.032C39.048 86.032 41.48 85.648 43.912 84.88C46.344 84.048 48.424 82.896 50.152 81.424L53.32 88.72C52.232 89.744 50.76 90.704 48.904 91.6C47.112 92.432 45.128 93.104 42.952 93.616C40.776 94.128 38.6 94.384 36.424 94.384ZM56.8015 94L55.5535 87.952L60.8335 86.224L79.5535 27.664H89.6335L108.45 86.224L112.962 87.952L111.906 94H90.1135V88.24L97.8895 86.224L93.6655 72.016H73.6015L69.2815 86.512L77.7295 88.144V94H56.8015ZM76.0015 63.856H90.4975L83.5855 38.224L76.0015 63.856ZM122.424 94L121.944 87.568L132.888 85.648V36.016H120.888L116.952 45.52H111L113.016 27.664H162.168L164.28 45.424H158.424L154.392 36.016H142.488V85.648L153.528 87.568L153.048 94H122.424Z"/>
</mask>
<path d="M36.424 94.384C31.88 94.384 27.656 93.648 23.752 92.176C19.848 90.64 16.424 88.432 13.48 85.552C10.536 82.672 8.264 79.216 6.664 75.184C5.064 71.088 4.264 66.48 4.264 61.36C4.264 56.24 5.096 51.632 6.76 47.536C8.424 43.44 10.728 39.92 13.672 36.976C16.616 33.968 20.008 31.664 23.848 30.064C27.688 28.464 31.784 27.664 36.136 27.664C39.336 27.664 42.088 27.888 44.392 28.336C46.76 28.72 48.616 29.104 49.96 29.488L51.784 47.056H45.16L41.032 36.4C40.584 36.336 40.072 36.272 39.496 36.208C38.984 36.08 38.056 36.016 36.712 36.016C32.36 36.016 28.488 37.104 25.096 39.28C21.768 41.456 19.144 44.4 17.224 48.112C15.368 51.76 14.376 55.92 14.248 60.592C14.312 65.392 15.24 69.712 17.032 73.552C18.824 77.328 21.384 80.368 24.712 82.672C28.04 84.912 32.008 86.032 36.616 86.032C39.048 86.032 41.48 85.648 43.912 84.88C46.344 84.048 48.424 82.896 50.152 81.424L53.32 88.72C52.232 89.744 50.76 90.704 48.904 91.6C47.112 92.432 45.128 93.104 42.952 93.616C40.776 94.128 38.6 94.384 36.424 94.384ZM56.8015 94L55.5535 87.952L60.8335 86.224L79.5535 27.664H89.6335L108.45 86.224L112.962 87.952L111.906 94H90.1135V88.24L97.8895 86.224L93.6655 72.016H73.6015L69.2815 86.512L77.7295 88.144V94H56.8015ZM76.0015 63.856H90.4975L83.5855 38.224L76.0015 63.856ZM122.424 94L121.944 87.568L132.888 85.648V36.016H120.888L116.952 45.52H111L113.016 27.664H162.168L164.28 45.424H158.424L154.392 36.016H142.488V85.648L153.528 87.568L153.048 94H122.424Z" fill="black"/>
<path d="M23.752 92.176L23.3859 93.1066L23.3925 93.1092L23.3992 93.1117L23.752 92.176ZM13.48 85.552L14.1793 84.8372H14.1793L13.48 85.552ZM6.664 75.184L5.73253 75.5479L5.73451 75.5528L6.664 75.184ZM13.672 36.976L14.3791 37.6831L14.3867 37.6755L13.672 36.976ZM23.848 30.064L24.2326 30.9871L23.848 30.064ZM44.392 28.336L44.2011 29.3176L44.2165 29.3206L44.2319 29.3231L44.392 28.336ZM49.96 29.488L50.9547 29.3847L50.8848 28.7122L50.2347 28.5265L49.96 29.488ZM51.784 47.056V48.056H52.8932L52.7787 46.9527L51.784 47.056ZM45.16 47.056L44.2275 47.4172L44.475 48.056H45.16V47.056ZM41.032 36.4L41.9645 36.0388L41.753 35.4928L41.1734 35.41L41.032 36.4ZM39.496 36.208L39.2535 37.1781L39.3187 37.1945L39.3856 37.2019L39.496 36.208ZM25.096 39.28L24.556 38.4383L24.5488 38.443L25.096 39.28ZM17.224 48.112L16.3358 47.6526L16.3327 47.6585L17.224 48.112ZM14.248 60.592L13.2484 60.5646L13.2478 60.585L13.2481 60.6053L14.248 60.592ZM17.032 73.552L16.1258 73.9749L16.1286 73.9807L17.032 73.552ZM24.712 82.672L24.1427 83.4943L24.1536 83.5016L24.712 82.672ZM43.912 84.88L44.2131 85.8336L44.2245 85.83L44.2357 85.8262L43.912 84.88ZM50.152 81.424L51.0693 81.0257L50.5315 79.7871L49.5035 80.6628L50.152 81.424ZM53.32 88.72L54.0054 89.4482L54.5172 88.9665L54.2373 88.3217L53.32 88.72ZM48.904 91.6L49.3251 92.507L49.332 92.5038L49.3387 92.5005L48.904 91.6ZM42.952 93.616L42.723 92.6426L42.952 93.616ZM36.424 93.384C31.9898 93.384 27.8864 92.6661 24.1048 91.2403L23.3992 93.1117C27.4256 94.6299 31.7702 95.384 36.424 95.384V93.384ZM24.1181 91.2454C20.3361 89.7574 17.026 87.6219 14.1793 84.8372L12.7807 86.2668C15.822 89.2421 19.3599 91.5226 23.3859 93.1066L24.1181 91.2454ZM14.1793 84.8372C11.3407 82.0603 9.14464 78.7241 7.59349 74.8152L5.73451 75.5528C7.38336 79.7079 9.73129 83.2837 12.7807 86.2668L14.1793 84.8372ZM7.59546 74.8202C6.04755 70.8575 5.264 66.3756 5.264 61.36H3.264C3.264 66.5844 4.08045 71.3185 5.73254 75.5479L7.59546 74.8202ZM5.264 61.36C5.264 56.3489 6.07808 51.8715 7.68647 47.9124L5.83353 47.1596C4.11392 51.3925 3.264 56.1311 3.264 61.36H5.264ZM7.68647 47.9124C9.30333 43.9324 11.5353 40.5269 14.3791 37.6831L12.9649 36.2689C9.92066 39.3131 7.54467 42.9476 5.83353 47.1596L7.68647 47.9124ZM14.3867 37.6755C17.2379 34.7622 20.518 32.5348 24.2326 30.9871L23.4634 29.1409C19.498 30.7932 15.9941 33.1738 12.9573 36.2765L14.3867 37.6755ZM24.2326 30.9871C27.9451 29.4402 31.9098 28.664 36.136 28.664V26.664C31.6582 26.664 27.4309 27.4878 23.4634 29.1409L24.2326 30.9871ZM36.136 28.664C39.2933 28.664 41.978 28.8853 44.2011 29.3176L44.5829 27.3544C42.198 26.8907 39.3787 26.664 36.136 26.664V28.664ZM44.2319 29.3231C46.5844 29.7046 48.3963 30.0812 49.6853 30.4495L50.2347 28.5265C48.8357 28.1268 46.9356 27.7354 44.5521 27.3489L44.2319 29.3231ZM48.9654 29.5913L50.7894 47.1593L52.7787 46.9527L50.9547 29.3847L48.9654 29.5913ZM51.784 46.056H45.16V48.056H51.784V46.056ZM46.0925 46.6948L41.9645 36.0388L40.0995 36.7612L44.2275 47.4172L46.0925 46.6948ZM41.1734 35.41C40.7127 35.3442 40.1901 35.279 39.6064 35.2141L39.3856 37.2019C39.9539 37.265 40.4553 37.3278 40.8906 37.3899L41.1734 35.41ZM39.7385 35.2379C39.0926 35.0764 38.0501 35.016 36.712 35.016V37.016C38.0619 37.016 38.8754 37.0836 39.2535 37.1781L39.7385 35.2379ZM36.712 35.016C32.1845 35.016 28.1221 36.1507 24.556 38.4383L25.636 40.1217C28.8539 38.0573 32.5355 37.016 36.712 37.016V35.016ZM24.5488 38.443C21.069 40.7183 18.3308 43.7956 16.3358 47.6526L18.1122 48.5714C19.9572 45.0044 22.467 42.1937 25.6433 40.117L24.5488 38.443ZM16.3327 47.6585C14.4005 51.4563 13.3799 55.7654 13.2484 60.5646L15.2476 60.6194C15.3721 56.0746 16.3355 52.0636 18.1153 48.5655L16.3327 47.6585ZM13.2481 60.6053C13.3137 65.5281 14.2664 69.9905 16.1258 73.9749L17.9382 73.1291C16.2136 69.4335 15.3103 65.2559 15.2479 60.5787L13.2481 60.6053ZM16.1286 73.9807C17.9931 77.9095 20.666 81.0872 24.1428 83.4942L25.2812 81.8498C22.102 79.6488 19.6549 76.7465 17.9354 73.1233L16.1286 73.9807ZM24.1536 83.5016C27.6702 85.8685 31.8395 87.032 36.616 87.032V85.032C32.1765 85.032 28.4098 83.9555 25.2704 81.8424L24.1536 83.5016ZM36.616 87.032C39.155 87.032 41.6885 86.6308 44.2131 85.8336L43.6109 83.9264C41.2715 84.6652 38.941 85.032 36.616 85.032V87.032ZM44.2357 85.8262C46.771 84.9588 48.965 83.7488 50.8005 82.1852L49.5035 80.6628C47.883 82.0432 45.917 83.1372 43.5883 83.9338L44.2357 85.8262ZM49.2347 81.8223L52.4027 89.1183L54.2373 88.3217L51.0693 81.0257L49.2347 81.8223ZM52.6346 87.9918C51.6431 88.925 50.2656 89.8323 48.4693 90.6994L49.3387 92.5005C51.2544 91.5757 52.8209 90.563 54.0054 89.4482L52.6346 87.9918ZM48.4829 90.693C46.7599 91.4929 44.8413 92.1441 42.723 92.6426L43.181 94.5894C45.4147 94.0639 47.4641 93.3711 49.3251 92.507L48.4829 90.693ZM42.723 92.6426C40.62 93.1374 38.5208 93.384 36.424 93.384V95.384C38.6792 95.384 40.932 95.1186 43.181 94.5894L42.723 92.6426ZM56.8015 94L55.8221 94.2021L55.9868 95H56.8015V94ZM55.5535 87.952L55.2425 87.0016L54.3936 87.2794L54.5741 88.1541L55.5535 87.952ZM60.8335 86.224L61.1445 87.1744L61.6304 87.0154L61.786 86.5285L60.8335 86.224ZM79.5535 27.664V26.664H78.8233L78.601 27.3595L79.5535 27.664ZM89.6335 27.664L90.5856 27.3581L90.3625 26.664H89.6335V27.664ZM108.45 86.224L107.497 86.5299L107.644 86.9864L108.092 87.1579L108.45 86.224ZM112.962 87.952L113.947 88.124L114.088 87.3127L113.319 87.0181L112.962 87.952ZM111.906 94V95H112.746L112.891 94.172L111.906 94ZM90.1135 94H89.1135V95H90.1135V94ZM90.1135 88.24L89.8625 87.272L89.1135 87.4662V88.24H90.1135ZM97.8895 86.224L98.1405 87.192L99.1432 86.932L98.848 85.939L97.8895 86.224ZM93.6655 72.016L94.624 71.731L94.4115 71.016H93.6655V72.016ZM73.6015 72.016V71.016H72.8561L72.6432 71.7304L73.6015 72.016ZM69.2815 86.512L68.3232 86.2264L68.0078 87.2844L69.0918 87.4938L69.2815 86.512ZM77.7295 88.144H78.7295V87.3187L77.9192 87.1622L77.7295 88.144ZM77.7295 94V95H78.7295V94H77.7295ZM76.0015 63.856L75.0426 63.5723L74.6628 64.856H76.0015V63.856ZM90.4975 63.856V64.856H91.8029L91.463 63.5956L90.4975 63.856ZM83.5855 38.224L84.551 37.9636L83.6301 34.5486L82.6266 37.9403L83.5855 38.224ZM57.7809 93.7979L56.5329 87.7499L54.5741 88.1541L55.8221 94.2021L57.7809 93.7979ZM55.8645 88.9024L61.1445 87.1744L60.5225 85.2736L55.2425 87.0016L55.8645 88.9024ZM61.786 86.5285L80.506 27.9685L78.601 27.3595L59.881 85.9195L61.786 86.5285ZM79.5535 28.664H89.6335V26.664H79.5535V28.664ZM88.6814 27.9699L107.497 86.5299L109.402 85.9181L90.5856 27.3581L88.6814 27.9699ZM108.092 87.1579L112.604 88.8859L113.319 87.0181L108.807 85.2901L108.092 87.1579ZM111.976 87.78L110.92 93.828L112.891 94.172L113.947 88.124L111.976 87.78ZM111.906 93H90.1135V95H111.906V93ZM91.1135 94V88.24H89.1135V94H91.1135ZM90.3645 89.208L98.1405 87.192L97.6385 85.256L89.8625 87.272L90.3645 89.208ZM98.848 85.939L94.624 71.731L92.707 72.301L96.931 86.509L98.848 85.939ZM93.6655 71.016H73.6015V73.016H93.6655V71.016ZM72.6432 71.7304L68.3232 86.2264L70.2399 86.7976L74.5599 72.3016L72.6432 71.7304ZM69.0918 87.4938L77.5398 89.1258L77.9192 87.1622L69.4712 85.5302L69.0918 87.4938ZM76.7295 88.144V94H78.7295V88.144H76.7295ZM77.7295 93H56.8015V95H77.7295V93ZM76.0015 64.856H90.4975V62.856H76.0015V64.856ZM91.463 63.5956L84.551 37.9636L82.62 38.4844L89.532 64.1164L91.463 63.5956ZM82.6266 37.9403L75.0426 63.5723L76.9604 64.1397L84.5444 38.5077L82.6266 37.9403ZM122.424 94L121.427 94.0744L121.496 95H122.424V94ZM121.944 87.568L121.771 86.583L120.88 86.7395L120.947 87.6424L121.944 87.568ZM132.888 85.648L133.061 86.633L133.888 86.4878V85.648H132.888ZM132.888 36.016H133.888V35.016H132.888V36.016ZM120.888 36.016V35.016H120.22L119.964 35.6334L120.888 36.016ZM116.952 45.52V46.52H117.62L117.876 45.9026L116.952 45.52ZM111 45.52L110.007 45.4078L109.881 46.52H111V45.52ZM113.016 27.664V26.664H112.123L112.023 27.5518L113.016 27.664ZM162.168 27.664L163.161 27.5459L163.056 26.664H162.168V27.664ZM164.28 45.424V46.424H165.406L165.273 45.3059L164.28 45.424ZM158.424 45.424L157.505 45.8179L157.765 46.424H158.424V45.424ZM154.392 36.016L155.311 35.6221L155.052 35.016H154.392V36.016ZM142.488 36.016V35.016H141.488V36.016H142.488ZM142.488 85.648H141.488V86.4891L142.317 86.6332L142.488 85.648ZM153.528 87.568L154.525 87.6424L154.593 86.7382L153.7 86.5828L153.528 87.568ZM153.048 94V95H153.976L154.045 94.0744L153.048 94ZM123.421 93.9256L122.941 87.4936L120.947 87.6424L121.427 94.0744L123.421 93.9256ZM122.117 88.553L133.061 86.633L132.715 84.663L121.771 86.583L122.117 88.553ZM133.888 85.648V36.016H131.888V85.648H133.888ZM132.888 35.016H120.888V37.016H132.888V35.016ZM119.964 35.6334L116.028 45.1374L117.876 45.9026L121.812 36.3986L119.964 35.6334ZM116.952 44.52H111V46.52H116.952V44.52ZM111.994 45.6322L114.01 27.7762L112.023 27.5518L110.007 45.4078L111.994 45.6322ZM113.016 28.664H162.168V26.664H113.016V28.664ZM161.175 27.7821L163.287 45.5421L165.273 45.3059L163.161 27.5459L161.175 27.7821ZM164.28 44.424H158.424V46.424H164.28V44.424ZM159.343 45.0301L155.311 35.6221L153.473 36.4099L157.505 45.8179L159.343 45.0301ZM154.392 35.016H142.488V37.016H154.392V35.016ZM141.488 36.016V85.648H143.488V36.016H141.488ZM142.317 86.6332L153.357 88.5532L153.7 86.5828L142.66 84.6628L142.317 86.6332ZM152.531 87.4936L152.051 93.9256L154.045 94.0744L154.525 87.6424L152.531 87.4936ZM153.048 93H122.424V95H153.048V93Z" fill="black" mask="url(#path-1-outside-1_206_25)"/>
</g>
<g filter="url(#filter1_d_206_25)">
<mask id="path-3-outside-2_206_25" maskUnits="userSpaceOnUse" x="3" y="26" width="163" height="70" fill="black">
<rect fill="white" x="3" y="26" width="163" height="70"/>
<path d="M36.424 94.384C31.88 94.384 27.656 93.648 23.752 92.176C19.848 90.64 16.424 88.432 13.48 85.552C10.536 82.672 8.264 79.216 6.664 75.184C5.064 71.088 4.264 66.48 4.264 61.36C4.264 56.24 5.096 51.632 6.76 47.536C8.424 43.44 10.728 39.92 13.672 36.976C16.616 33.968 20.008 31.664 23.848 30.064C27.688 28.464 31.784 27.664 36.136 27.664C39.336 27.664 42.088 27.888 44.392 28.336C46.76 28.72 48.616 29.104 49.96 29.488L51.784 47.056H45.16L41.032 36.4C40.584 36.336 40.072 36.272 39.496 36.208C38.984 36.08 38.056 36.016 36.712 36.016C32.36 36.016 28.488 37.104 25.096 39.28C21.768 41.456 19.144 44.4 17.224 48.112C15.368 51.76 14.376 55.92 14.248 60.592C14.312 65.392 15.24 69.712 17.032 73.552C18.824 77.328 21.384 80.368 24.712 82.672C28.04 84.912 32.008 86.032 36.616 86.032C39.048 86.032 41.48 85.648 43.912 84.88C46.344 84.048 48.424 82.896 50.152 81.424L53.32 88.72C52.232 89.744 50.76 90.704 48.904 91.6C47.112 92.432 45.128 93.104 42.952 93.616C40.776 94.128 38.6 94.384 36.424 94.384ZM56.8015 94L55.5535 87.952L60.8335 86.224L79.5535 27.664H89.6335L108.45 86.224L112.962 87.952L111.906 94H90.1135V88.24L97.8895 86.224L93.6655 72.016H73.6015L69.2815 86.512L77.7295 88.144V94H56.8015ZM76.0015 63.856H90.4975L83.5855 38.224L76.0015 63.856ZM122.424 94L121.944 87.568L132.888 85.648V36.016H120.888L116.952 45.52H111L113.016 27.664H162.168L164.28 45.424H158.424L154.392 36.016H142.488V85.648L153.528 87.568L153.048 94H122.424Z"/>
</mask>
<path d="M36.424 94.384C31.88 94.384 27.656 93.648 23.752 92.176C19.848 90.64 16.424 88.432 13.48 85.552C10.536 82.672 8.264 79.216 6.664 75.184C5.064 71.088 4.264 66.48 4.264 61.36C4.264 56.24 5.096 51.632 6.76 47.536C8.424 43.44 10.728 39.92 13.672 36.976C16.616 33.968 20.008 31.664 23.848 30.064C27.688 28.464 31.784 27.664 36.136 27.664C39.336 27.664 42.088 27.888 44.392 28.336C46.76 28.72 48.616 29.104 49.96 29.488L51.784 47.056H45.16L41.032 36.4C40.584 36.336 40.072 36.272 39.496 36.208C38.984 36.08 38.056 36.016 36.712 36.016C32.36 36.016 28.488 37.104 25.096 39.28C21.768 41.456 19.144 44.4 17.224 48.112C15.368 51.76 14.376 55.92 14.248 60.592C14.312 65.392 15.24 69.712 17.032 73.552C18.824 77.328 21.384 80.368 24.712 82.672C28.04 84.912 32.008 86.032 36.616 86.032C39.048 86.032 41.48 85.648 43.912 84.88C46.344 84.048 48.424 82.896 50.152 81.424L53.32 88.72C52.232 89.744 50.76 90.704 48.904 91.6C47.112 92.432 45.128 93.104 42.952 93.616C40.776 94.128 38.6 94.384 36.424 94.384ZM56.8015 94L55.5535 87.952L60.8335 86.224L79.5535 27.664H89.6335L108.45 86.224L112.962 87.952L111.906 94H90.1135V88.24L97.8895 86.224L93.6655 72.016H73.6015L69.2815 86.512L77.7295 88.144V94H56.8015ZM76.0015 63.856H90.4975L83.5855 38.224L76.0015 63.856ZM122.424 94L121.944 87.568L132.888 85.648V36.016H120.888L116.952 45.52H111L113.016 27.664H162.168L164.28 45.424H158.424L154.392 36.016H142.488V85.648L153.528 87.568L153.048 94H122.424Z" fill="black"/>
<path d="M23.752 92.176L23.3859 93.1066L23.3925 93.1092L23.3992 93.1117L23.752 92.176ZM13.48 85.552L14.1793 84.8372H14.1793L13.48 85.552ZM6.664 75.184L5.73253 75.5479L5.73451 75.5528L6.664 75.184ZM13.672 36.976L14.3791 37.6831L14.3867 37.6755L13.672 36.976ZM23.848 30.064L24.2326 30.9871L23.848 30.064ZM44.392 28.336L44.2011 29.3176L44.2165 29.3206L44.2319 29.3231L44.392 28.336ZM49.96 29.488L50.9547 29.3847L50.8848 28.7122L50.2347 28.5265L49.96 29.488ZM51.784 47.056V48.056H52.8932L52.7787 46.9527L51.784 47.056ZM45.16 47.056L44.2275 47.4172L44.475 48.056H45.16V47.056ZM41.032 36.4L41.9645 36.0388L41.753 35.4928L41.1734 35.41L41.032 36.4ZM39.496 36.208L39.2535 37.1781L39.3187 37.1945L39.3856 37.2019L39.496 36.208ZM25.096 39.28L24.556 38.4383L24.5488 38.443L25.096 39.28ZM17.224 48.112L16.3358 47.6526L16.3327 47.6585L17.224 48.112ZM14.248 60.592L13.2484 60.5646L13.2478 60.585L13.2481 60.6053L14.248 60.592ZM17.032 73.552L16.1258 73.9749L16.1286 73.9807L17.032 73.552ZM24.712 82.672L24.1427 83.4943L24.1536 83.5016L24.712 82.672ZM43.912 84.88L44.2131 85.8336L44.2245 85.83L44.2357 85.8262L43.912 84.88ZM50.152 81.424L51.0693 81.0257L50.5315 79.7871L49.5035 80.6628L50.152 81.424ZM53.32 88.72L54.0054 89.4482L54.5172 88.9665L54.2373 88.3217L53.32 88.72ZM48.904 91.6L49.3251 92.507L49.332 92.5038L49.3387 92.5005L48.904 91.6ZM42.952 93.616L42.723 92.6426L42.952 93.616ZM36.424 93.384C31.9898 93.384 27.8864 92.6661 24.1048 91.2403L23.3992 93.1117C27.4256 94.6299 31.7702 95.384 36.424 95.384V93.384ZM24.1181 91.2454C20.3361 89.7574 17.026 87.6219 14.1793 84.8372L12.7807 86.2668C15.822 89.2421 19.3599 91.5226 23.3859 93.1066L24.1181 91.2454ZM14.1793 84.8372C11.3407 82.0603 9.14464 78.7241 7.59349 74.8152L5.73451 75.5528C7.38336 79.7079 9.73129 83.2837 12.7807 86.2668L14.1793 84.8372ZM7.59546 74.8202C6.04755 70.8575 5.264 66.3756 5.264 61.36H3.264C3.264 66.5844 4.08045 71.3185 5.73254 75.5479L7.59546 74.8202ZM5.264 61.36C5.264 56.3489 6.07808 51.8715 7.68647 47.9124L5.83353 47.1596C4.11392 51.3925 3.264 56.1311 3.264 61.36H5.264ZM7.68647 47.9124C9.30333 43.9324 11.5353 40.5269 14.3791 37.6831L12.9649 36.2689C9.92066 39.3131 7.54467 42.9476 5.83353 47.1596L7.68647 47.9124ZM14.3867 37.6755C17.2379 34.7622 20.518 32.5348 24.2326 30.9871L23.4634 29.1409C19.498 30.7932 15.9941 33.1738 12.9573 36.2765L14.3867 37.6755ZM24.2326 30.9871C27.9451 29.4402 31.9098 28.664 36.136 28.664V26.664C31.6582 26.664 27.4309 27.4878 23.4634 29.1409L24.2326 30.9871ZM36.136 28.664C39.2933 28.664 41.978 28.8853 44.2011 29.3176L44.5829 27.3544C42.198 26.8907 39.3787 26.664 36.136 26.664V28.664ZM44.2319 29.3231C46.5844 29.7046 48.3963 30.0812 49.6853 30.4495L50.2347 28.5265C48.8357 28.1268 46.9356 27.7354 44.5521 27.3489L44.2319 29.3231ZM48.9654 29.5913L50.7894 47.1593L52.7787 46.9527L50.9547 29.3847L48.9654 29.5913ZM51.784 46.056H45.16V48.056H51.784V46.056ZM46.0925 46.6948L41.9645 36.0388L40.0995 36.7612L44.2275 47.4172L46.0925 46.6948ZM41.1734 35.41C40.7127 35.3442 40.1901 35.279 39.6064 35.2141L39.3856 37.2019C39.9539 37.265 40.4553 37.3278 40.8906 37.3899L41.1734 35.41ZM39.7385 35.2379C39.0926 35.0764 38.0501 35.016 36.712 35.016V37.016C38.0619 37.016 38.8754 37.0836 39.2535 37.1781L39.7385 35.2379ZM36.712 35.016C32.1845 35.016 28.1221 36.1507 24.556 38.4383L25.636 40.1217C28.8539 38.0573 32.5355 37.016 36.712 37.016V35.016ZM24.5488 38.443C21.069 40.7183 18.3308 43.7956 16.3358 47.6526L18.1122 48.5714C19.9572 45.0044 22.467 42.1937 25.6433 40.117L24.5488 38.443ZM16.3327 47.6585C14.4005 51.4563 13.3799 55.7654 13.2484 60.5646L15.2476 60.6194C15.3721 56.0746 16.3355 52.0636 18.1153 48.5655L16.3327 47.6585ZM13.2481 60.6053C13.3137 65.5281 14.2664 69.9905 16.1258 73.9749L17.9382 73.1291C16.2136 69.4335 15.3103 65.2559 15.2479 60.5787L13.2481 60.6053ZM16.1286 73.9807C17.9931 77.9095 20.666 81.0872 24.1428 83.4942L25.2812 81.8498C22.102 79.6488 19.6549 76.7465 17.9354 73.1233L16.1286 73.9807ZM24.1536 83.5016C27.6702 85.8685 31.8395 87.032 36.616 87.032V85.032C32.1765 85.032 28.4098 83.9555 25.2704 81.8424L24.1536 83.5016ZM36.616 87.032C39.155 87.032 41.6885 86.6308 44.2131 85.8336L43.6109 83.9264C41.2715 84.6652 38.941 85.032 36.616 85.032V87.032ZM44.2357 85.8262C46.771 84.9588 48.965 83.7488 50.8005 82.1852L49.5035 80.6628C47.883 82.0432 45.917 83.1372 43.5883 83.9338L44.2357 85.8262ZM49.2347 81.8223L52.4027 89.1183L54.2373 88.3217L51.0693 81.0257L49.2347 81.8223ZM52.6346 87.9918C51.6431 88.925 50.2656 89.8323 48.4693 90.6994L49.3387 92.5005C51.2544 91.5757 52.8209 90.563 54.0054 89.4482L52.6346 87.9918ZM48.4829 90.693C46.7599 91.4929 44.8413 92.1441 42.723 92.6426L43.181 94.5894C45.4147 94.0639 47.4641 93.3711 49.3251 92.507L48.4829 90.693ZM42.723 92.6426C40.62 93.1374 38.5208 93.384 36.424 93.384V95.384C38.6792 95.384 40.932 95.1186 43.181 94.5894L42.723 92.6426ZM56.8015 94L55.8221 94.2021L55.9868 95H56.8015V94ZM55.5535 87.952L55.2425 87.0016L54.3936 87.2794L54.5741 88.1541L55.5535 87.952ZM60.8335 86.224L61.1445 87.1744L61.6304 87.0154L61.786 86.5285L60.8335 86.224ZM79.5535 27.664V26.664H78.8233L78.601 27.3595L79.5535 27.664ZM89.6335 27.664L90.5856 27.3581L90.3625 26.664H89.6335V27.664ZM108.45 86.224L107.497 86.5299L107.644 86.9864L108.092 87.1579L108.45 86.224ZM112.962 87.952L113.947 88.124L114.088 87.3127L113.319 87.0181L112.962 87.952ZM111.906 94V95H112.746L112.891 94.172L111.906 94ZM90.1135 94H89.1135V95H90.1135V94ZM90.1135 88.24L89.8625 87.272L89.1135 87.4662V88.24H90.1135ZM97.8895 86.224L98.1405 87.192L99.1432 86.932L98.848 85.939L97.8895 86.224ZM93.6655 72.016L94.624 71.731L94.4115 71.016H93.6655V72.016ZM73.6015 72.016V71.016H72.8561L72.6432 71.7304L73.6015 72.016ZM69.2815 86.512L68.3232 86.2264L68.0078 87.2844L69.0918 87.4938L69.2815 86.512ZM77.7295 88.144H78.7295V87.3187L77.9192 87.1622L77.7295 88.144ZM77.7295 94V95H78.7295V94H77.7295ZM76.0015 63.856L75.0426 63.5723L74.6628 64.856H76.0015V63.856ZM90.4975 63.856V64.856H91.8029L91.463 63.5956L90.4975 63.856ZM83.5855 38.224L84.551 37.9636L83.6301 34.5486L82.6266 37.9403L83.5855 38.224ZM57.7809 93.7979L56.5329 87.7499L54.5741 88.1541L55.8221 94.2021L57.7809 93.7979ZM55.8645 88.9024L61.1445 87.1744L60.5225 85.2736L55.2425 87.0016L55.8645 88.9024ZM61.786 86.5285L80.506 27.9685L78.601 27.3595L59.881 85.9195L61.786 86.5285ZM79.5535 28.664H89.6335V26.664H79.5535V28.664ZM88.6814 27.9699L107.497 86.5299L109.402 85.9181L90.5856 27.3581L88.6814 27.9699ZM108.092 87.1579L112.604 88.8859L113.319 87.0181L108.807 85.2901L108.092 87.1579ZM111.976 87.78L110.92 93.828L112.891 94.172L113.947 88.124L111.976 87.78ZM111.906 93H90.1135V95H111.906V93ZM91.1135 94V88.24H89.1135V94H91.1135ZM90.3645 89.208L98.1405 87.192L97.6385 85.256L89.8625 87.272L90.3645 89.208ZM98.848 85.939L94.624 71.731L92.707 72.301L96.931 86.509L98.848 85.939ZM93.6655 71.016H73.6015V73.016H93.6655V71.016ZM72.6432 71.7304L68.3232 86.2264L70.2399 86.7976L74.5599 72.3016L72.6432 71.7304ZM69.0918 87.4938L77.5398 89.1258L77.9192 87.1622L69.4712 85.5302L69.0918 87.4938ZM76.7295 88.144V94H78.7295V88.144H76.7295ZM77.7295 93H56.8015V95H77.7295V93ZM76.0015 64.856H90.4975V62.856H76.0015V64.856ZM91.463 63.5956L84.551 37.9636L82.62 38.4844L89.532 64.1164L91.463 63.5956ZM82.6266 37.9403L75.0426 63.5723L76.9604 64.1397L84.5444 38.5077L82.6266 37.9403ZM122.424 94L121.427 94.0744L121.496 95H122.424V94ZM121.944 87.568L121.771 86.583L120.88 86.7395L120.947 87.6424L121.944 87.568ZM132.888 85.648L133.061 86.633L133.888 86.4878V85.648H132.888ZM132.888 36.016H133.888V35.016H132.888V36.016ZM120.888 36.016V35.016H120.22L119.964 35.6334L120.888 36.016ZM116.952 45.52V46.52H117.62L117.876 45.9026L116.952 45.52ZM111 45.52L110.007 45.4078L109.881 46.52H111V45.52ZM113.016 27.664V26.664H112.123L112.023 27.5518L113.016 27.664ZM162.168 27.664L163.161 27.5459L163.056 26.664H162.168V27.664ZM164.28 45.424V46.424H165.406L165.273 45.3059L164.28 45.424ZM158.424 45.424L157.505 45.8179L157.765 46.424H158.424V45.424ZM154.392 36.016L155.311 35.6221L155.052 35.016H154.392V36.016ZM142.488 36.016V35.016H141.488V36.016H142.488ZM142.488 85.648H141.488V86.4891L142.317 86.6332L142.488 85.648ZM153.528 87.568L154.525 87.6424L154.593 86.7382L153.7 86.5828L153.528 87.568ZM153.048 94V95H153.976L154.045 94.0744L153.048 94ZM123.421 93.9256L122.941 87.4936L120.947 87.6424L121.427 94.0744L123.421 93.9256ZM122.117 88.553L133.061 86.633L132.715 84.663L121.771 86.583L122.117 88.553ZM133.888 85.648V36.016H131.888V85.648H133.888ZM132.888 35.016H120.888V37.016H132.888V35.016ZM119.964 35.6334L116.028 45.1374L117.876 45.9026L121.812 36.3986L119.964 35.6334ZM116.952 44.52H111V46.52H116.952V44.52ZM111.994 45.6322L114.01 27.7762L112.023 27.5518L110.007 45.4078L111.994 45.6322ZM113.016 28.664H162.168V26.664H113.016V28.664ZM161.175 27.7821L163.287 45.5421L165.273 45.3059L163.161 27.5459L161.175 27.7821ZM164.28 44.424H158.424V46.424H164.28V44.424ZM159.343 45.0301L155.311 35.6221L153.473 36.4099L157.505 45.8179L159.343 45.0301ZM154.392 35.016H142.488V37.016H154.392V35.016ZM141.488 36.016V85.648H143.488V36.016H141.488ZM142.317 86.6332L153.357 88.5532L153.7 86.5828L142.66 84.6628L142.317 86.6332ZM152.531 87.4936L152.051 93.9256L154.045 94.0744L154.525 87.6424L152.531 87.4936ZM153.048 93H122.424V95H153.048V93Z" fill="black" mask="url(#path-3-outside-2_206_25)"/>
</g>
<path d="M180.96 42.08C180.24 42.08 179.62 41.9533 179.1 41.7C178.593 41.4333 178.173 41.08 177.84 40.64C177.507 40.1867 177.26 39.68 177.1 39.12C176.94 38.5467 176.86 37.9533 176.86 37.34C176.86 36.7 176.933 36.0867 177.08 35.5C177.24 34.9133 177.487 34.3867 177.82 33.92C178.153 33.4533 178.58 33.0867 179.1 32.82C179.62 32.5533 180.247 32.42 180.98 32.42C181.273 32.42 181.553 32.44 181.82 32.48C182.087 32.52 182.333 32.58 182.56 32.66C182.8 32.7267 183.013 32.8067 183.2 32.9C183.387 32.98 183.54 33.0667 183.66 33.16L182.78 34.54L181.6 33.6L180.88 33.56C180.347 33.5333 179.9 33.6333 179.54 33.86C179.193 34.0733 178.92 34.3667 178.72 34.74C178.52 35.1133 178.38 35.5333 178.3 36C178.22 36.4533 178.18 36.9067 178.18 37.36C178.18 37.9467 178.267 38.52 178.44 39.08C178.613 39.6267 178.913 40.0733 179.34 40.42C179.78 40.7667 180.387 40.94 181.16 40.94C181.427 40.94 181.673 40.92 181.9 40.88C182.127 40.84 182.347 40.78 182.56 40.7C182.773 40.62 182.987 40.52 183.2 40.4L183.54 41.38C183.193 41.6333 182.793 41.8133 182.34 41.92C181.887 42.0267 181.427 42.08 180.96 42.08ZM188.725 42.08C188.219 42.08 187.739 41.9867 187.285 41.8C186.832 41.6 186.459 41.2667 186.165 40.8C185.885 40.3333 185.745 39.6933 185.745 38.88V33.7H184.665L184.485 32.74L186.505 32.38L187.005 32.94V38.82C187.005 39.34 187.072 39.7467 187.205 40.04C187.352 40.32 187.532 40.5267 187.745 40.66C187.972 40.78 188.199 40.8533 188.425 40.88C188.652 40.9067 188.845 40.92 189.005 40.92C189.379 40.92 189.759 40.8267 190.145 40.64C190.545 40.4533 190.825 40.2333 190.985 39.98V33.7H189.905L189.765 32.74L191.765 32.36L192.245 32.94V40.54C192.245 40.7133 192.292 40.8333 192.385 40.9C192.479 40.9533 192.585 40.98 192.705 40.98C192.785 40.98 192.859 40.9733 192.925 40.96C192.992 40.9333 193.039 40.92 193.065 40.92L193.225 41.62C193.145 41.7133 193.005 41.8133 192.805 41.92C192.605 42.0267 192.365 42.08 192.085 42.08C191.805 42.08 191.579 42.0133 191.405 41.88C191.245 41.7333 191.132 41.5267 191.065 41.26C190.759 41.5133 190.399 41.7133 189.985 41.86C189.572 42.0067 189.152 42.08 188.725 42.08ZM194.83 42L194.65 41.12L195.83 40.84V33.7H194.75L194.59 32.74L196.55 32.4L197.09 33.2C197.383 32.9333 197.71 32.7333 198.07 32.6C198.43 32.4533 198.777 32.38 199.11 32.38C199.697 32.38 200.177 32.5267 200.55 32.82C200.937 33.1133 201.237 33.4067 201.45 33.7L199.93 34.44L199.25 33.52C199.01 33.52 198.717 33.5933 198.37 33.74C198.037 33.8867 197.737 34.1267 197.47 34.46C197.217 34.78 197.09 35.2133 197.09 35.76V40.72L199.89 41.12V42H194.83ZM202.545 42L202.365 41.12L203.545 40.84V33.7H202.465L202.305 32.74L204.265 32.4L204.805 33.2C205.098 32.9333 205.425 32.7333 205.785 32.6C206.145 32.4533 206.492 32.38 206.825 32.38C207.412 32.38 207.892 32.5267 208.265 32.82C208.652 33.1133 208.952 33.4067 209.165 33.7L207.645 34.44L206.965 33.52C206.725 33.52 206.432 33.5933 206.085 33.74C205.752 33.8867 205.452 34.1267 205.185 34.46C204.932 34.78 204.805 35.2133 204.805 35.76V40.72L207.605 41.12V42H202.545ZM214.403 42.08C213.429 42.08 212.623 41.8733 211.983 41.46C211.343 41.0333 210.863 40.46 210.543 39.74C210.223 39.02 210.063 38.2267 210.063 37.36C210.063 36.44 210.229 35.6067 210.563 34.86C210.896 34.1133 211.376 33.52 212.003 33.08C212.629 32.64 213.383 32.42 214.263 32.42C214.809 32.42 215.303 32.5267 215.743 32.74C216.196 32.94 216.556 33.2333 216.823 33.62C217.103 34.0067 217.243 34.48 217.243 35.04C217.243 35.7467 217.069 36.32 216.723 36.76C216.376 37.1867 215.916 37.5133 215.343 37.74C214.783 37.9533 214.176 38.1 213.523 38.18C212.869 38.26 212.229 38.3 211.603 38.3H211.443C211.576 39.0733 211.883 39.7133 212.363 40.22C212.856 40.7133 213.569 40.96 214.503 40.96C214.929 40.96 215.349 40.9 215.763 40.78C216.176 40.6467 216.536 40.4667 216.843 40.24L217.183 41.32C216.929 41.5067 216.649 41.66 216.343 41.78C216.036 41.8867 215.716 41.96 215.383 42C215.063 42.0533 214.736 42.08 214.403 42.08ZM211.383 37.12H211.723C212.096 37.12 212.523 37.1067 213.003 37.08C213.483 37.04 213.943 36.96 214.383 36.84C214.823 36.7067 215.189 36.5 215.483 36.22C215.776 35.9267 215.923 35.5333 215.923 35.04C215.923 34.5067 215.736 34.1267 215.363 33.9C215.003 33.6733 214.629 33.56 214.243 33.56C213.629 33.56 213.116 33.7267 212.703 34.06C212.289 34.38 211.969 34.8133 211.743 35.36C211.529 35.8933 211.409 36.48 211.383 37.12ZM219.01 42L218.89 41.14L219.99 40.84V33.6L218.91 33.68L218.73 32.74L220.75 32.38L221.19 33.2C221.55 32.9467 221.937 32.7533 222.35 32.62C222.777 32.4867 223.21 32.42 223.65 32.42C224.263 32.42 224.783 32.5333 225.21 32.76C225.637 32.9733 225.957 33.2933 226.17 33.72C226.397 34.1467 226.51 34.68 226.51 35.32V40.84L227.73 41.12V42H224.13L224.05 41.12L225.25 40.84V35.46C225.25 34.82 225.103 34.3467 224.81 34.04C224.53 33.72 224.11 33.56 223.55 33.56C223.137 33.56 222.723 33.6333 222.31 33.78C221.91 33.9267 221.557 34.1333 221.25 34.4V40.82L222.47 41.12V42H219.01ZM233.148 42.08C232.428 42.08 231.808 41.9533 231.288 41.7C230.781 41.4333 230.361 41.08 230.028 40.64C229.694 40.1867 229.448 39.68 229.288 39.12C229.128 38.5467 229.048 37.9533 229.048 37.34C229.048 36.7 229.121 36.0867 229.268 35.5C229.428 34.9133 229.674 34.3867 230.008 33.92C230.341 33.4533 230.768 33.0867 231.288 32.82C231.808 32.5533 232.434 32.42 233.168 32.42C233.461 32.42 233.741 32.44 234.008 32.48C234.274 32.52 234.521 32.58 234.748 32.66C234.988 32.7267 235.201 32.8067 235.388 32.9C235.574 32.98 235.728 33.0667 235.848 33.16L234.968 34.54L233.788 33.6L233.068 33.56C232.534 33.5333 232.088 33.6333 231.728 33.86C231.381 34.0733 231.108 34.3667 230.908 34.74C230.708 35.1133 230.568 35.5333 230.488 36C230.408 36.4533 230.368 36.9067 230.368 37.36C230.368 37.9467 230.454 38.52 230.628 39.08C230.801 39.6267 231.101 40.0733 231.528 40.42C231.968 40.7667 232.574 40.94 233.348 40.94C233.614 40.94 233.861 40.92 234.088 40.88C234.314 40.84 234.534 40.78 234.748 40.7C234.961 40.62 235.174 40.52 235.388 40.4L235.728 41.38C235.381 41.6333 234.981 41.8133 234.528 41.92C234.074 42.0267 233.614 42.08 233.148 42.08ZM237.213 42L237.033 41.14L238.233 40.84V33.68L237.153 33.76L236.973 32.74L238.953 32.38L239.493 32.98V40.82L240.713 41.12V42H237.213ZM238.813 31.4C238.533 31.4 238.3 31.3 238.113 31.1C237.94 30.9 237.853 30.6733 237.853 30.42C237.853 30.1533 237.94 29.9267 238.113 29.74C238.3 29.54 238.533 29.44 238.813 29.44C239.066 29.44 239.286 29.54 239.473 29.74C239.66 29.9267 239.753 30.1533 239.753 30.42C239.753 30.6733 239.66 30.9 239.473 31.1C239.286 31.3 239.066 31.4 238.813 31.4ZM246.375 42.08C245.402 42.08 244.595 41.8733 243.955 41.46C243.315 41.0333 242.835 40.46 242.515 39.74C242.195 39.02 242.035 38.2267 242.035 37.36C242.035 36.44 242.202 35.6067 242.535 34.86C242.869 34.1133 243.349 33.52 243.975 33.08C244.602 32.64 245.355 32.42 246.235 32.42C246.782 32.42 247.275 32.5267 247.715 32.74C248.169 32.94 248.529 33.2333 248.795 33.62C249.075 34.0067 249.215 34.48 249.215 35.04C249.215 35.7467 249.042 36.32 248.695 36.76C248.349 37.1867 247.889 37.5133 247.315 37.74C246.755 37.9533 246.149 38.1 245.495 38.18C244.842 38.26 244.202 38.3 243.575 38.3H243.415C243.549 39.0733 243.855 39.7133 244.335 40.22C244.829 40.7133 245.542 40.96 246.475 40.96C246.902 40.96 247.322 40.9 247.735 40.78C248.149 40.6467 248.509 40.4667 248.815 40.24L249.155 41.32C248.902 41.5067 248.622 41.66 248.315 41.78C248.009 41.8867 247.689 41.96 247.355 42C247.035 42.0533 246.709 42.08 246.375 42.08ZM243.355 37.12H243.695C244.069 37.12 244.495 37.1067 244.975 37.08C245.455 37.04 245.915 36.96 246.355 36.84C246.795 36.7067 247.162 36.5 247.455 36.22C247.749 35.9267 247.895 35.5333 247.895 35.04C247.895 34.5067 247.709 34.1267 247.335 33.9C246.975 33.6733 246.602 33.56 246.215 33.56C245.602 33.56 245.089 33.7267 244.675 34.06C244.262 34.38 243.942 34.8133 243.715 35.36C243.502 35.8933 243.382 36.48 243.355 37.12ZM253.943 42.08C253.343 42.08 252.823 41.98 252.383 41.78C251.956 41.5667 251.603 41.3133 251.323 41.02C251.056 40.7133 250.849 40.4267 250.703 40.16L252.263 39.56L252.723 40.6C252.789 40.64 252.929 40.7067 253.143 40.8C253.356 40.88 253.663 40.92 254.063 40.92C254.289 40.92 254.536 40.8733 254.803 40.78C255.069 40.6733 255.296 40.52 255.483 40.32C255.669 40.1067 255.763 39.84 255.763 39.52C255.763 39.2 255.696 38.9333 255.563 38.72C255.429 38.5067 255.203 38.3133 254.883 38.14C254.576 37.9667 254.143 37.7867 253.583 37.6C252.876 37.3733 252.283 37.0533 251.803 36.64C251.336 36.2267 251.103 35.68 251.103 35C251.103 34.44 251.236 33.9667 251.503 33.58C251.783 33.1933 252.149 32.9 252.603 32.7C253.056 32.4867 253.536 32.38 254.043 32.38C254.643 32.38 255.163 32.4867 255.603 32.7C256.043 32.9 256.403 33.1533 256.683 33.46C256.963 33.7533 257.163 34.04 257.283 34.32L255.723 34.9L255.263 33.88C255.183 33.8133 255.049 33.74 254.863 33.66C254.676 33.58 254.403 33.54 254.043 33.54C253.843 33.54 253.616 33.5867 253.363 33.68C253.109 33.76 252.889 33.9 252.702 34.1C252.516 34.2867 252.423 34.5467 252.423 34.88C252.423 35.1733 252.489 35.4133 252.623 35.6C252.769 35.7867 253.009 35.96 253.343 36.12C253.676 36.2667 254.123 36.4333 254.683 36.62C255.523 36.9 256.129 37.2667 256.503 37.72C256.889 38.1733 257.083 38.7333 257.083 39.4C257.083 39.9867 256.923 40.48 256.603 40.88C256.296 41.28 255.903 41.58 255.423 41.78C254.943 41.98 254.449 42.08 253.943 42.08ZM179.8 67.08C179.267 67.08 178.773 66.98 178.32 66.78C177.867 66.5667 177.5 66.26 177.22 65.86C176.953 65.46 176.82 64.9867 176.82 64.44C176.82 63.76 176.993 63.2133 177.34 62.8C177.7 62.3867 178.153 62.0667 178.7 61.84C179.26 61.6133 179.84 61.46 180.44 61.38C181.04 61.3 181.58 61.2533 182.06 61.24V59.96C182.06 59.5333 181.9 59.1933 181.58 58.94C181.26 58.6867 180.833 58.56 180.3 58.56C180.1 58.56 179.86 58.58 179.58 58.62C179.313 58.6467 179.093 58.7133 178.92 58.82L178.6 59.88L176.96 59.58C177.187 58.8333 177.607 58.2867 178.22 57.94C178.847 57.5933 179.5 57.42 180.18 57.42C180.913 57.42 181.507 57.54 181.96 57.78C182.427 58.0067 182.767 58.3333 182.98 58.76C183.207 59.1867 183.32 59.6867 183.32 60.26V65.42C183.32 65.5667 183.353 65.7 183.42 65.82C183.487 65.94 183.607 66 183.78 66C183.847 66 183.92 65.9867 184 65.96C184.08 65.9333 184.147 65.9133 184.2 65.9L184.42 66.66C184.287 66.8067 184.12 66.9133 183.92 66.98C183.72 67.0467 183.52 67.08 183.32 67.08C182.96 67.08 182.693 67 182.52 66.84C182.347 66.6667 182.227 66.4533 182.16 66.2C181.867 66.48 181.52 66.7 181.12 66.86C180.72 67.0067 180.28 67.08 179.8 67.08ZM179.94 65.94C180.353 65.94 180.753 65.8467 181.14 65.66C181.527 65.46 181.833 65.1867 182.06 64.84V62.36C181.727 62.36 181.333 62.3867 180.88 62.44C180.44 62.4933 180.007 62.5867 179.58 62.72C179.167 62.8533 178.82 63.0533 178.54 63.32C178.273 63.5867 178.14 63.94 178.14 64.38C178.14 64.8333 178.3 65.2067 178.62 65.5C178.94 65.7933 179.38 65.94 179.94 65.94ZM189.925 67.08C189.205 67.08 188.585 66.9533 188.065 66.7C187.558 66.4333 187.138 66.08 186.805 65.64C186.472 65.1867 186.225 64.68 186.065 64.12C185.905 63.5467 185.825 62.9533 185.825 62.34C185.825 61.7 185.898 61.0867 186.045 60.5C186.205 59.9133 186.452 59.3867 186.785 58.92C187.118 58.4533 187.545 58.0867 188.065 57.82C188.585 57.5533 189.212 57.42 189.945 57.42C190.238 57.42 190.518 57.44 190.785 57.48C191.052 57.52 191.298 57.58 191.525 57.66C191.765 57.7267 191.978 57.8067 192.165 57.9C192.352 57.98 192.505 58.0667 192.625 58.16L191.745 59.54L190.565 58.6L189.845 58.56C189.312 58.5333 188.865 58.6333 188.505 58.86C188.158 59.0733 187.885 59.3667 187.685 59.74C187.485 60.1133 187.345 60.5333 187.265 61C187.185 61.4533 187.145 61.9067 187.145 62.36C187.145 62.9467 187.232 63.52 187.405 64.08C187.578 64.6267 187.878 65.0733 188.305 65.42C188.745 65.7667 189.352 65.94 190.125 65.94C190.392 65.94 190.638 65.92 190.865 65.88C191.092 65.84 191.312 65.78 191.525 65.7C191.738 65.62 191.952 65.52 192.165 65.4L192.505 66.38C192.158 66.6333 191.758 66.8133 191.305 66.92C190.852 67.0267 190.392 67.08 189.925 67.08ZM196.87 67.08C196.337 67.08 195.844 66.98 195.39 66.78C194.937 66.5667 194.57 66.26 194.29 65.86C194.024 65.46 193.89 64.9867 193.89 64.44C193.89 63.76 194.064 63.2133 194.41 62.8C194.77 62.3867 195.224 62.0667 195.77 61.84C196.33 61.6133 196.91 61.46 197.51 61.38C198.11 61.3 198.65 61.2533 199.13 61.24V59.96C199.13 59.5333 198.97 59.1933 198.65 58.94C198.33 58.6867 197.904 58.56 197.37 58.56C197.17 58.56 196.93 58.58 196.65 58.62C196.384 58.6467 196.164 58.7133 195.99 58.82L195.67 59.88L194.03 59.58C194.257 58.8333 194.677 58.2867 195.29 57.94C195.917 57.5933 196.57 57.42 197.25 57.42C197.984 57.42 198.577 57.54 199.03 57.78C199.497 58.0067 199.837 58.3333 200.05 58.76C200.277 59.1867 200.39 59.6867 200.39 60.26V65.42C200.39 65.5667 200.424 65.7 200.49 65.82C200.557 65.94 200.677 66 200.85 66C200.917 66 200.99 65.9867 201.07 65.96C201.15 65.9333 201.217 65.9133 201.27 65.9L201.49 66.66C201.357 66.8067 201.19 66.9133 200.99 66.98C200.79 67.0467 200.59 67.08 200.39 67.08C200.03 67.08 199.764 67 199.59 66.84C199.417 66.6667 199.297 66.4533 199.23 66.2C198.937 66.48 198.59 66.7 198.19 66.86C197.79 67.0067 197.35 67.08 196.87 67.08ZM197.01 65.94C197.424 65.94 197.824 65.8467 198.21 65.66C198.597 65.46 198.904 65.1867 199.13 64.84V62.36C198.797 62.36 198.404 62.3867 197.95 62.44C197.51 62.4933 197.077 62.5867 196.65 62.72C196.237 62.8533 195.89 63.0533 195.61 63.32C195.344 63.5867 195.21 63.94 195.21 64.38C195.21 64.8333 195.37 65.2067 195.69 65.5C196.01 65.7933 196.45 65.94 197.01 65.94ZM206.835 67.08C205.942 67.08 205.202 66.8467 204.615 66.38C204.028 65.9 203.588 65.2933 203.295 64.56C203.015 63.8267 202.875 63.0733 202.875 62.3C202.875 61.6333 202.962 61.0067 203.135 60.42C203.308 59.82 203.562 59.3 203.895 58.86C204.242 58.4067 204.675 58.0533 205.195 57.8C205.728 57.5467 206.342 57.42 207.035 57.42C207.448 57.42 207.808 57.46 208.115 57.54C208.435 57.62 208.715 57.7133 208.955 57.82V53.78L207.735 53.86L207.575 52.82L209.675 52.46L210.215 53.06V65.42C210.215 65.5667 210.248 65.7 210.315 65.82C210.382 65.94 210.502 66 210.675 66C210.742 66 210.815 65.9867 210.895 65.96C210.975 65.9333 211.042 65.9133 211.095 65.9L211.315 66.7C211.168 66.8333 210.975 66.9333 210.735 67C210.495 67.0533 210.315 67.08 210.195 67.08C209.862 67.08 209.608 67 209.435 66.84C209.262 66.6667 209.142 66.4733 209.075 66.26C208.782 66.54 208.442 66.7467 208.055 66.88C207.668 67.0133 207.262 67.08 206.835 67.08ZM206.955 65.94C207.342 65.94 207.715 65.8533 208.075 65.68C208.448 65.5067 208.742 65.2533 208.955 64.92V59.26C208.728 59.0067 208.448 58.8267 208.115 58.72C207.795 58.6133 207.462 58.56 207.115 58.56C206.395 58.56 205.822 58.74 205.395 59.1C204.968 59.46 204.662 59.92 204.475 60.48C204.288 61.04 204.195 61.62 204.195 62.22C204.195 62.78 204.282 63.3467 204.455 63.92C204.642 64.4933 204.935 64.9733 205.335 65.36C205.735 65.7467 206.275 65.94 206.955 65.94ZM217.039 67.08C216.066 67.08 215.259 66.8733 214.619 66.46C213.979 66.0333 213.499 65.46 213.179 64.74C212.859 64.02 212.699 63.2267 212.699 62.36C212.699 61.44 212.866 60.6067 213.199 59.86C213.533 59.1133 214.013 58.52 214.639 58.08C215.266 57.64 216.019 57.42 216.899 57.42C217.446 57.42 217.939 57.5267 218.379 57.74C218.833 57.94 219.193 58.2333 219.459 58.62C219.739 59.0067 219.879 59.48 219.879 60.04C219.879 60.7467 219.706 61.32 219.359 61.76C219.013 62.1867 218.553 62.5133 217.979 62.74C217.419 62.9533 216.813 63.1 216.159 63.18C215.506 63.26 214.866 63.3 214.239 63.3H214.079C214.213 64.0733 214.519 64.7133 214.999 65.22C215.493 65.7133 216.206 65.96 217.139 65.96C217.566 65.96 217.986 65.9 218.399 65.78C218.813 65.6467 219.173 65.4667 219.479 65.24L219.819 66.32C219.566 66.5067 219.286 66.66 218.979 66.78C218.673 66.8867 218.353 66.96 218.019 67C217.699 67.0533 217.373 67.08 217.039 67.08ZM214.019 62.12H214.359C214.733 62.12 215.159 62.1067 215.639 62.08C216.119 62.04 216.579 61.96 217.019 61.84C217.459 61.7067 217.826 61.5 218.119 61.22C218.413 60.9267 218.559 60.5333 218.559 60.04C218.559 59.5067 218.373 59.1267 217.999 58.9C217.639 58.6733 217.266 58.56 216.879 58.56C216.266 58.56 215.753 58.7267 215.339 59.06C214.926 59.38 214.606 59.8133 214.379 60.36C214.166 60.8933 214.046 61.48 214.019 62.12ZM221.647 67L221.527 66.14L222.627 65.84V58.6L221.547 58.68L221.367 57.74L223.387 57.38L223.827 58.2C224.2 57.9467 224.613 57.7533 225.067 57.62C225.52 57.4867 225.927 57.42 226.287 57.42C226.793 57.42 227.247 57.5 227.647 57.66C228.047 57.82 228.373 58.0733 228.627 58.42C229.04 58.0867 229.427 57.8533 229.787 57.72C230.16 57.5867 230.487 57.5067 230.767 57.48C231.06 57.44 231.28 57.42 231.427 57.42C232.067 57.42 232.607 57.5333 233.047 57.76C233.487 57.9733 233.82 58.2933 234.047 58.72C234.273 59.1467 234.387 59.68 234.387 60.32V65.84L235.607 66.12V67H232.007L231.927 66.12L233.127 65.84V60.46C233.127 59.82 232.98 59.3467 232.687 59.04C232.407 58.72 231.987 58.56 231.427 58.56C231.133 58.56 230.787 58.6133 230.387 58.72C229.987 58.8267 229.573 59.1067 229.147 59.56V65.84L230.367 66.12V67H226.767L226.687 66.12L227.887 65.84V60.46C227.887 59.82 227.74 59.3467 227.447 59.04C227.167 58.72 226.747 58.56 226.187 58.56C225.773 58.56 225.36 58.6333 224.947 58.78C224.547 58.9267 224.193 59.1333 223.887 59.4V65.82L225.107 66.12V67H221.647ZM236.979 67L236.799 66.14L237.999 65.84V58.68L236.919 58.76L236.739 57.74L238.719 57.38L239.259 57.98V65.82L240.479 66.12V67H236.979ZM238.579 56.4C238.299 56.4 238.065 56.3 237.879 56.1C237.705 55.9 237.619 55.6733 237.619 55.42C237.619 55.1533 237.705 54.9267 237.879 54.74C238.065 54.54 238.299 54.44 238.579 54.44C238.832 54.44 239.052 54.54 239.239 54.74C239.425 54.9267 239.519 55.1533 239.519 55.42C239.519 55.6733 239.425 55.9 239.239 56.1C239.052 56.3 238.832 56.4 238.579 56.4ZM245.921 67.08C245.201 67.08 244.581 66.9533 244.061 66.7C243.554 66.4333 243.134 66.08 242.801 65.64C242.468 65.1867 242.221 64.68 242.061 64.12C241.901 63.5467 241.821 62.9533 241.821 62.34C241.821 61.7 241.894 61.0867 242.041 60.5C242.201 59.9133 242.448 59.3867 242.781 58.92C243.114 58.4533 243.541 58.0867 244.061 57.82C244.581 57.5533 245.208 57.42 245.941 57.42C246.234 57.42 246.514 57.44 246.781 57.48C247.048 57.52 247.294 57.58 247.521 57.66C247.761 57.7267 247.974 57.8067 248.161 57.9C248.348 57.98 248.501 58.0667 248.621 58.16L247.741 59.54L246.561 58.6L245.841 58.56C245.308 58.5333 244.861 58.6333 244.501 58.86C244.154 59.0733 243.881 59.3667 243.681 59.74C243.481 60.1133 243.341 60.5333 243.261 61C243.181 61.4533 243.141 61.9067 243.141 62.36C243.141 62.9467 243.228 63.52 243.401 64.08C243.574 64.6267 243.874 65.0733 244.301 65.42C244.741 65.7667 245.348 65.94 246.121 65.94C246.388 65.94 246.634 65.92 246.861 65.88C247.088 65.84 247.308 65.78 247.521 65.7C247.734 65.62 247.948 65.52 248.161 65.4L248.501 66.38C248.154 66.6333 247.754 66.8133 247.301 66.92C246.848 67.0267 246.388 67.08 245.921 67.08ZM179.82 92.08C179.407 92.08 179.06 91.9867 178.78 91.8C178.513 91.6 178.313 91.3333 178.18 91C178.047 90.6667 177.98 90.2933 177.98 89.88L178.02 83.52H176.42L176.14 82.64L176.28 82.42H178.04L178.06 79.06L179.18 78.78L179.3 79L179.28 82.42H181.4C181.467 82.42 181.5 82.46 181.5 82.54V83.52H179.26V89.98C179.26 90.34 179.333 90.5867 179.48 90.72C179.64 90.8533 179.867 90.92 180.16 90.92C180.44 90.92 180.7 90.8533 180.94 90.72C181.18 90.5733 181.347 90.4667 181.44 90.4L181.78 91.42C181.62 91.54 181.387 91.68 181.08 91.84C180.787 92 180.367 92.08 179.82 92.08ZM187.235 92.08C186.261 92.08 185.455 91.8733 184.815 91.46C184.175 91.0333 183.695 90.46 183.375 89.74C183.055 89.02 182.895 88.2267 182.895 87.36C182.895 86.44 183.061 85.6067 183.395 84.86C183.728 84.1133 184.208 83.52 184.835 83.08C185.461 82.64 186.215 82.42 187.095 82.42C187.641 82.42 188.135 82.5267 188.575 82.74C189.028 82.94 189.388 83.2333 189.655 83.62C189.935 84.0067 190.075 84.48 190.075 85.04C190.075 85.7467 189.901 86.32 189.555 86.76C189.208 87.1867 188.748 87.5133 188.175 87.74C187.615 87.9533 187.008 88.1 186.355 88.18C185.701 88.26 185.061 88.3 184.435 88.3H184.275C184.408 89.0733 184.715 89.7133 185.195 90.22C185.688 90.7133 186.401 90.96 187.335 90.96C187.761 90.96 188.181 90.9 188.595 90.78C189.008 90.6467 189.368 90.4667 189.675 90.24L190.015 91.32C189.761 91.5067 189.481 91.66 189.175 91.78C188.868 91.8867 188.548 91.96 188.215 92C187.895 92.0533 187.568 92.08 187.235 92.08ZM184.215 87.12H184.555C184.928 87.12 185.355 87.1067 185.835 87.08C186.315 87.04 186.775 86.96 187.215 86.84C187.655 86.7067 188.021 86.5 188.315 86.22C188.608 85.9267 188.755 85.5333 188.755 85.04C188.755 84.5067 188.568 84.1267 188.195 83.9C187.835 83.6733 187.461 83.56 187.075 83.56C186.461 83.56 185.948 83.7267 185.535 84.06C185.121 84.38 184.801 84.8133 184.575 85.36C184.361 85.8933 184.241 86.48 184.215 87.12ZM191.842 92L191.662 91.12L192.842 90.84V83.7H191.762L191.602 82.74L193.562 82.4L194.102 83.2C194.395 82.9333 194.722 82.7333 195.082 82.6C195.442 82.4533 195.789 82.38 196.122 82.38C196.709 82.38 197.189 82.5267 197.562 82.82C197.949 83.1133 198.249 83.4067 198.462 83.7L196.942 84.44L196.262 83.52C196.022 83.52 195.729 83.5933 195.382 83.74C195.049 83.8867 194.749 84.1267 194.482 84.46C194.229 84.78 194.102 85.2133 194.102 85.76V90.72L196.902 91.12V92H191.842ZM199.557 92L199.437 91.14L200.537 90.84V83.6L199.457 83.68L199.277 82.74L201.297 82.38L201.737 83.2C202.11 82.9467 202.523 82.7533 202.977 82.62C203.43 82.4867 203.837 82.42 204.197 82.42C204.703 82.42 205.157 82.5 205.557 82.66C205.957 82.82 206.283 83.0733 206.537 83.42C206.95 83.0867 207.337 82.8533 207.697 82.72C208.07 82.5867 208.397 82.5067 208.677 82.48C208.97 82.44 209.19 82.42 209.337 82.42C209.977 82.42 210.517 82.5333 210.957 82.76C211.397 82.9733 211.73 83.2933 211.957 83.72C212.183 84.1467 212.297 84.68 212.297 85.32V90.84L213.517 91.12V92H209.917L209.837 91.12L211.037 90.84V85.46C211.037 84.82 210.89 84.3467 210.597 84.04C210.317 83.72 209.897 83.56 209.337 83.56C209.043 83.56 208.697 83.6133 208.297 83.72C207.897 83.8267 207.483 84.1067 207.057 84.56V90.84L208.277 91.12V92H204.677L204.597 91.12L205.797 90.84V85.46C205.797 84.82 205.65 84.3467 205.357 84.04C205.077 83.72 204.657 83.56 204.097 83.56C203.683 83.56 203.27 83.6333 202.857 83.78C202.457 83.9267 202.103 84.1333 201.797 84.4V90.82L203.017 91.12V92H199.557ZM217.849 92.08C217.249 92.08 216.729 91.98 216.289 91.78C215.862 91.5667 215.509 91.3133 215.229 91.02C214.962 90.7133 214.755 90.4267 214.609 90.16L216.169 89.56L216.629 90.6C216.695 90.64 216.835 90.7067 217.049 90.8C217.262 90.88 217.569 90.92 217.969 90.92C218.195 90.92 218.442 90.8733 218.709 90.78C218.975 90.6733 219.202 90.52 219.389 90.32C219.575 90.1067 219.669 89.84 219.669 89.52C219.669 89.2 219.602 88.9333 219.469 88.72C219.335 88.5067 219.109 88.3133 218.789 88.14C218.482 87.9667 218.049 87.7867 217.489 87.6C216.782 87.3733 216.189 87.0533 215.709 86.64C215.242 86.2267 215.009 85.68 215.009 85C215.009 84.44 215.142 83.9667 215.409 83.58C215.689 83.1933 216.055 82.9 216.509 82.7C216.962 82.4867 217.442 82.38 217.949 82.38C218.549 82.38 219.069 82.4867 219.509 82.7C219.949 82.9 220.309 83.1533 220.589 83.46C220.869 83.7533 221.069 84.04 221.189 84.32L219.629 84.9L219.169 83.88C219.089 83.8133 218.955 83.74 218.769 83.66C218.582 83.58 218.309 83.54 217.949 83.54C217.749 83.54 217.522 83.5867 217.269 83.68C217.015 83.76 216.795 83.9 216.609 84.1C216.422 84.2867 216.329 84.5467 216.329 84.88C216.329 85.1733 216.395 85.4133 216.529 85.6C216.675 85.7867 216.915 85.96 217.249 86.12C217.582 86.2667 218.029 86.4333 218.589 86.62C219.429 86.9 220.035 87.2667 220.409 87.72C220.795 88.1733 220.989 88.7333 220.989 89.4C220.989 89.9867 220.829 90.48 220.509 90.88C220.202 91.28 219.809 91.58 219.329 91.78C218.849 91.98 218.355 92.08 217.849 92.08Z" fill="black"/>
<defs>
<filter id="filter0_d_206_25" x="0.264008" y="27.664" width="168.016" height="74.72" filterUnits="userSpaceOnUse" color-interpolation-filters="sRGB">
<feFlood flood-opacity="0" result="BackgroundImageFix"/>
<feColorMatrix in="SourceAlpha" type="matrix" values="0 0 0 0 0 0 0 0 0 0 0 0 0 0 0 0 0 0 127 0" result="hardAlpha"/>
<feOffset dy="4"/>
<feGaussianBlur stdDeviation="2"/>
<feComposite in2="hardAlpha" operator="out"/>
<feColorMatrix type="matrix" values="0 0 0 0 0 0 0 0 0 0 0 0 0 0 0 0 0 0 0.25 0"/>
<feBlend mode="normal" in2="BackgroundImageFix" result="effect1_dropShadow_206_25"/>
<feBlend mode="normal" in="SourceGraphic" in2="effect1_dropShadow_206_25" result="shape"/>
</filter>
<filter id="filter1_d_206_25" x="0.264008" y="27.664" width="168.016" height="74.72" filterUnits="userSpaceOnUse" color-interpolation-filters="sRGB">
<feFlood flood-opacity="0" result="BackgroundImageFix"/>
<feColorMatrix in="SourceAlpha" type="matrix" values="0 0 0 0 0 0 0 0 0 0 0 0 0 0 0 0 0 0 127 0" result="hardAlpha"/>
<feOffset dy="4"/>
<feGaussianBlur stdDeviation="2"/>
<feComposite in2="hardAlpha" operator="out"/>
<feColorMatrix type="matrix" values="0 0 0 0 0 0 0 0 0 0 0 0 0 0 0 0 0 0 0.25 0"/>
<feBlend mode="normal" in2="BackgroundImageFix" result="effect1_dropShadow_206_25"/>
<feBlend mode="normal" in="SourceGraphic" in2="effect1_dropShadow_206_25" result="shape"/>
</filter>
</defs>
</svg>
